<svg width="24" height="24" viewBox="0 0 24 24" fill="none" xmlns="http://www.w3.org/2000/svg">
<path d="M17.972 9.525L14.386 5.939C14.1046 5.65774 13.723 5.49978 13.3251 5.49988C12.9273 5.49997 12.5458 5.65811 12.2645 5.9395C11.9832 6.2209 11.8253 6.6025 11.8254 7.00036C11.8254 7.19736 11.8643 7.39242 11.9397 7.57441C12.0151 7.75639 12.1257 7.92174 12.265 8.061L14.7 10.5H6.5C6.10218 10.5 5.72064 10.658 5.43934 10.9393C5.15804 11.2206 5 11.6022 5 12C5 12.3978 5.15804 12.7794 5.43934 13.0607C5.72064 13.342 6.10218 13.5 6.5 13.5H14.7L12.261 15.939C11.9796 16.2203 11.8215 16.6018 11.8214 16.9997C11.8213 17.3975 11.9792 17.7791 12.2605 18.0605C12.5418 18.3419 12.9233 18.5 13.3211 18.5001C13.719 18.5002 14.1006 18.3423 14.382 18.061L17.968 14.475C18.6238 13.8185 18.9924 12.9287 18.9932 12.0008C18.9939 11.0729 18.6267 10.1826 17.972 9.525Z" fill="white"/>
</svg>
