<svg width="10" height="10" viewBox="0 0 10 10" fill="none" xmlns="http://www.w3.org/2000/svg">
<path opacity="0.4" d="M1.34918 7.16092C1.22862 7.28155 1.16089 7.44512 1.16089 7.61567C1.16089 7.78622 1.22862 7.94979 1.34918 8.07042L1.80393 8.52516C1.92456 8.64573 2.08813 8.71346 2.25868 8.71346C2.42923 8.71346 2.5928 8.64573 2.71342 8.52516L4.75958 6.47901L3.39534 5.11477L1.34918 7.16092ZM8.16997 2.15912L7.71522 1.70438C7.5946 1.58381 7.43103 1.51608 7.26048 1.51608C7.08993 1.51608 6.92636 1.58381 6.80573 1.70438L4.75958 3.75053L6.12382 5.11477L8.16997 3.06862C8.29054 2.94799 8.35826 2.78442 8.35826 2.61387C8.35826 2.44332 8.29054 2.27975 8.16997 2.15912Z" fill="white"/>
<path d="M8.16997 7.16092C8.29054 7.28155 8.35826 7.44512 8.35826 7.61567C8.35826 7.78622 8.29054 7.94979 8.16997 8.07042L7.71522 8.52516C7.5946 8.64573 7.43103 8.71346 7.26048 8.71346C7.08993 8.71346 6.92636 8.64573 6.80573 8.52516L1.34918 3.06862C1.22862 2.94799 1.16089 2.78442 1.16089 2.61387C1.16089 2.44332 1.22862 2.27975 1.34918 2.15912L1.80393 1.70438C1.92456 1.58381 2.08813 1.51608 2.25868 1.51608C2.42923 1.51608 2.5928 1.58381 2.71342 1.70438L8.16997 7.16092Z" fill="white"/>
<path d="M6.12381 5.11477L8.16995 3.06863C8.42104 2.81754 8.42104 2.41044 8.16995 2.15914L7.7152 1.7044C7.46411 1.45331 7.05701 1.45331 6.80572 1.7044L4.75958 3.75054L2.71344 1.7044C2.46235 1.45331 2.05524 1.45331 1.80395 1.7044L1.34921 2.15914C1.09812 2.41023 1.09812 2.81734 1.34921 3.06863L3.39535 5.11477L1.34921 7.16091C1.09812 7.412 1.09812 7.8191 1.34921 8.0704L1.80395 8.52514C2.05504 8.77623 2.46235 8.77623 2.71344 8.52514L4.75958 6.479L6.80572 8.52514C7.05681 8.77623 7.46411 8.77623 7.7152 8.52514L8.16995 8.0704C8.42104 7.81931 8.42104 7.41221 8.16995 7.16091L6.12381 5.11477Z" fill="white"/>
</svg>
