<svg width="66" height="66" viewBox="0 0 66 66" fill="none" xmlns="http://www.w3.org/2000/svg">
<path fill-rule="evenodd" clip-rule="evenodd" d="M4.25 18.5625V11.375C4.25 7.44625 7.44631 4.25 11.375 4.25H18.5625C19.4599 4.25 20.1875 3.52244 20.1875 2.625C20.1875 1.72756 19.4599 1 18.5625 1H11.375C5.65425 1 1 5.65419 1 11.375V18.5625C1 19.4599 1.72756 20.1875 2.625 20.1875C3.52244 20.1875 4.25 19.4599 4.25 18.5625ZM18.5625 61.75C19.4599 61.75 20.1875 62.4776 20.1875 63.375C20.1875 64.2724 19.4599 65 18.5625 65H11.375C5.65425 65 1 60.3457 1 54.625V47.4375C1 46.5401 1.72756 45.8125 2.625 45.8125C3.52244 45.8125 4.25 46.5401 4.25 47.4375V54.625C4.25 58.5537 7.44631 61.75 11.375 61.75H18.5625ZM65 47.4375V54.625C65 60.3457 60.3457 65 54.625 65H47.4375C46.5401 65 45.8125 64.2724 45.8125 63.375C45.8125 62.4776 46.5401 61.75 47.4375 61.75H54.625C58.5537 61.75 61.75 58.5537 61.75 54.625V47.4375C61.75 46.5401 62.4776 45.8125 63.375 45.8125C64.2724 45.8125 65 46.5401 65 47.4375ZM65 11.375V18.5625C65 19.4599 64.2724 20.1875 63.375 20.1875C62.4776 20.1875 61.75 19.4599 61.75 18.5625V11.375C61.75 7.44625 58.5537 4.25 54.625 4.25H47.4375C46.5401 4.25 45.8125 3.52244 45.8125 2.625C45.8125 1.72756 46.5401 1 47.4375 1H54.625C60.3457 1 65 5.65419 65 11.375ZM44.2142 48.3021C44.8988 47.6698 44.9411 46.6021 44.3087 45.9175C43.6763 45.2329 42.6087 45.1906 41.9241 45.8229C39.488 48.0731 36.3187 49.3124 32.9999 49.3124C29.681 49.3124 26.5117 48.0731 24.0756 45.8229C23.3909 45.1906 22.3234 45.2329 21.691 45.9175C21.0586 46.6021 21.1009 47.6698 21.7855 48.3021C24.8471 51.13 28.8297 52.6874 32.9999 52.6874C37.17 52.6874 41.1526 51.13 44.2142 48.3021ZM36.375 25.125V37.125C36.375 39.5029 34.4404 41.4375 32.0625 41.4375H30.6875C29.7555 41.4375 29 40.682 29 39.75C29 38.818 29.7555 38.0625 30.6875 38.0625H32.0625C32.5794 38.0625 33 37.6419 33 37.125V25.125C33 24.193 33.7555 23.4375 34.6875 23.4375C35.6195 23.4375 36.375 24.193 36.375 25.125ZM48 29.8438V25.0312C48 24.1511 47.2864 23.4375 46.4062 23.4375C45.5261 23.4375 44.8125 24.1511 44.8125 25.0312V29.8438C44.8125 30.7239 45.5261 31.4375 46.4062 31.4375C47.2864 31.4375 48 30.7239 48 29.8438ZM18.375 29.8438C18.375 30.7239 19.0886 31.4375 19.9688 31.4375C20.8489 31.4375 21.5625 30.7239 21.5625 29.8438V25.0312C21.5625 24.1511 20.8489 23.4375 19.9688 23.4375C19.0886 23.4375 18.375 24.1511 18.375 25.0312V29.8438Z" fill="black"/>
<path d="M44.3087 45.9175L44.8597 45.4086L44.8596 45.4086L44.3087 45.9175ZM44.2142 48.3021L44.7231 48.8531L44.7231 48.8531L44.2142 48.3021ZM41.9241 45.8229L41.4152 45.2719L41.4152 45.2719L41.9241 45.8229ZM24.0756 45.8229L24.5845 45.2719L24.5844 45.2719L24.0756 45.8229ZM21.691 45.9175L21.1401 45.4086L21.14 45.4086L21.691 45.9175ZM21.7855 48.3021L21.2767 48.8531L21.2767 48.8531L21.7855 48.3021ZM3.5 11.375V18.5625H5V11.375H3.5ZM11.375 3.5C7.0321 3.5 3.5 7.03203 3.5 11.375H5C5 7.86047 7.86052 5 11.375 5V3.5ZM18.5625 3.5H11.375V5H18.5625V3.5ZM19.4375 2.625C19.4375 3.10822 19.0457 3.5 18.5625 3.5V5C19.8742 5 20.9375 3.93665 20.9375 2.625H19.4375ZM18.5625 1.75C19.0457 1.75 19.4375 2.14178 19.4375 2.625H20.9375C20.9375 1.31335 19.8742 0.25 18.5625 0.25V1.75ZM11.375 1.75H18.5625V0.25H11.375V1.75ZM1.75 11.375C1.75 6.0684 6.06846 1.75 11.375 1.75V0.25C5.24004 0.25 0.25 5.23997 0.25 11.375H1.75ZM1.75 18.5625V11.375H0.25V18.5625H1.75ZM2.625 19.4375C2.14178 19.4375 1.75 19.0457 1.75 18.5625H0.25C0.25 19.8742 1.31335 20.9375 2.625 20.9375V19.4375ZM3.5 18.5625C3.5 19.0457 3.10822 19.4375 2.625 19.4375V20.9375C3.93665 20.9375 5 19.8742 5 18.5625H3.5ZM20.9375 63.375C20.9375 62.0633 19.8742 61 18.5625 61V62.5C19.0457 62.5 19.4375 62.8918 19.4375 63.375H20.9375ZM18.5625 65.75C19.8742 65.75 20.9375 64.6867 20.9375 63.375H19.4375C19.4375 63.8582 19.0457 64.25 18.5625 64.25V65.75ZM11.375 65.75H18.5625V64.25H11.375V65.75ZM0.25 54.625C0.25 60.76 5.24004 65.75 11.375 65.75V64.25C6.06846 64.25 1.75 59.9315 1.75 54.625H0.25ZM0.25 47.4375V54.625H1.75V47.4375H0.25ZM2.625 45.0625C1.31335 45.0625 0.25 46.1258 0.25 47.4375H1.75C1.75 46.9543 2.14178 46.5625 2.625 46.5625V45.0625ZM5 47.4375C5 46.1258 3.93665 45.0625 2.625 45.0625V46.5625C3.10822 46.5625 3.5 46.9543 3.5 47.4375H5ZM5 54.625V47.4375H3.5V54.625H5ZM11.375 61C7.86053 61 5 58.1395 5 54.625H3.5C3.5 58.9679 7.0321 62.5 11.375 62.5V61ZM18.5625 61H11.375V62.5H18.5625V61ZM65.75 54.625V47.4375H64.25V54.625H65.75ZM54.625 65.75C60.76 65.75 65.75 60.76 65.75 54.625H64.25C64.25 59.9315 59.9315 64.25 54.625 64.25V65.75ZM47.4375 65.75H54.625V64.25H47.4375V65.75ZM45.0625 63.375C45.0625 64.6867 46.1258 65.75 47.4375 65.75V64.25C46.9543 64.25 46.5625 63.8582 46.5625 63.375H45.0625ZM47.4375 61C46.1258 61 45.0625 62.0633 45.0625 63.375H46.5625C46.5625 62.8918 46.9543 62.5 47.4375 62.5V61ZM54.625 61H47.4375V62.5H54.625V61ZM61 54.625C61 58.1395 58.1395 61 54.625 61V62.5C58.9679 62.5 62.5 58.9679 62.5 54.625H61ZM61 47.4375V54.625H62.5V47.4375H61ZM63.375 45.0625C62.0633 45.0625 61 46.1258 61 47.4375H62.5C62.5 46.9543 62.8918 46.5625 63.375 46.5625V45.0625ZM65.75 47.4375C65.75 46.1258 64.6867 45.0625 63.375 45.0625V46.5625C63.8582 46.5625 64.25 46.9543 64.25 47.4375H65.75ZM65.75 18.5625V11.375H64.25V18.5625H65.75ZM63.375 20.9375C64.6867 20.9375 65.75 19.8742 65.75 18.5625H64.25C64.25 19.0457 63.8582 19.4375 63.375 19.4375V20.9375ZM61 18.5625C61 19.8742 62.0633 20.9375 63.375 20.9375V19.4375C62.8918 19.4375 62.5 19.0457 62.5 18.5625H61ZM61 11.375V18.5625H62.5V11.375H61ZM54.625 5C58.1395 5 61 7.86047 61 11.375H62.5C62.5 7.03203 58.9679 3.5 54.625 3.5V5ZM47.4375 5H54.625V3.5H47.4375V5ZM45.0625 2.625C45.0625 3.93665 46.1258 5 47.4375 5V3.5C46.9543 3.5 46.5625 3.10822 46.5625 2.625H45.0625ZM47.4375 0.25C46.1258 0.25 45.0625 1.31335 45.0625 2.625H46.5625C46.5625 2.14178 46.9543 1.75 47.4375 1.75V0.25ZM54.625 0.25H47.4375V1.75H54.625V0.25ZM65.75 11.375C65.75 5.23997 60.76 0.25 54.625 0.25V1.75C59.9315 1.75 64.25 6.0684 64.25 11.375H65.75ZM43.7578 46.4264C44.1091 46.8068 44.0856 47.3999 43.7053 47.7512L44.7231 48.8531C45.712 47.9396 45.7731 46.3975 44.8597 45.4086L43.7578 46.4264ZM42.433 46.3738C42.8133 46.0225 43.4064 46.046 43.7578 46.4264L44.8596 45.4086C43.9462 44.4197 42.4041 44.3586 41.4152 45.2719L42.433 46.3738ZM32.9999 50.0624C36.5071 50.0624 39.8583 48.7522 42.433 46.3738L41.4152 45.2719C39.1178 47.3941 36.1302 48.5624 32.9999 48.5624V50.0624ZM23.5667 46.3738C26.1414 48.7522 29.4926 50.0624 32.9999 50.0624V48.5624C29.8695 48.5624 26.8819 47.3941 24.5845 45.2719L23.5667 46.3738ZM22.2419 46.4264C22.5933 46.0461 23.1863 46.0225 23.5668 46.3739L24.5844 45.2719C23.5954 44.3586 22.0536 44.4198 21.1401 45.4086L22.2419 46.4264ZM22.2944 47.7512C21.9141 47.3999 21.8906 46.8068 22.2419 46.4264L21.14 45.4086C20.2266 46.3975 20.2877 47.9396 21.2767 48.8531L22.2944 47.7512ZM32.9999 51.9374C29.0182 51.9374 25.2173 50.451 22.2944 47.7512L21.2767 48.8531C24.4769 51.809 28.6412 53.4374 32.9999 53.4374V51.9374ZM43.7053 47.7512C40.7824 50.451 36.9815 51.9374 32.9999 51.9374V53.4374C37.3586 53.4374 41.5228 51.809 44.7231 48.8531L43.7053 47.7512ZM37.125 37.125V25.125H35.625V37.125H37.125ZM32.0625 42.1875C34.8547 42.1875 37.125 39.9172 37.125 37.125H35.625C35.625 39.0887 34.0262 40.6875 32.0625 40.6875V42.1875ZM30.6875 42.1875H32.0625V40.6875H30.6875V42.1875ZM28.25 39.75C28.25 41.0962 29.3413 42.1875 30.6875 42.1875V40.6875C30.1697 40.6875 29.75 40.2678 29.75 39.75H28.25ZM30.6875 37.3125C29.3413 37.3125 28.25 38.4038 28.25 39.75H29.75C29.75 39.2322 30.1697 38.8125 30.6875 38.8125V37.3125ZM32.0625 37.3125H30.6875V38.8125H32.0625V37.3125ZM32.25 37.125C32.25 37.2277 32.1652 37.3125 32.0625 37.3125V38.8125C32.9937 38.8125 33.75 38.0562 33.75 37.125H32.25ZM32.25 25.125V37.125H33.75V25.125H32.25ZM34.6875 22.6875C33.3413 22.6875 32.25 23.7788 32.25 25.125H33.75C33.75 24.6072 34.1697 24.1875 34.6875 24.1875V22.6875ZM37.125 25.125C37.125 23.7788 36.0337 22.6875 34.6875 22.6875V24.1875C35.2053 24.1875 35.625 24.6072 35.625 25.125H37.125ZM47.25 25.0312V29.8438H48.75V25.0312H47.25ZM46.4062 24.1875C46.8722 24.1875 47.25 24.5653 47.25 25.0312H48.75C48.75 23.7368 47.7007 22.6875 46.4062 22.6875V24.1875ZM45.5625 25.0312C45.5625 24.5653 45.9403 24.1875 46.4062 24.1875V22.6875C45.1118 22.6875 44.0625 23.7368 44.0625 25.0312H45.5625ZM45.5625 29.8438V25.0312H44.0625V29.8438H45.5625ZM46.4062 30.6875C45.9403 30.6875 45.5625 30.3097 45.5625 29.8438H44.0625C44.0625 31.1382 45.1118 32.1875 46.4062 32.1875V30.6875ZM47.25 29.8438C47.25 30.3097 46.8722 30.6875 46.4062 30.6875V32.1875C47.7007 32.1875 48.75 31.1382 48.75 29.8438H47.25ZM19.9688 30.6875C19.5028 30.6875 19.125 30.3097 19.125 29.8438H17.625C17.625 31.1382 18.6743 32.1875 19.9688 32.1875V30.6875ZM20.8125 29.8438C20.8125 30.3097 20.4347 30.6875 19.9688 30.6875V32.1875C21.2632 32.1875 22.3125 31.1382 22.3125 29.8438H20.8125ZM20.8125 25.0312V29.8438H22.3125V25.0312H20.8125ZM19.9688 24.1875C20.4347 24.1875 20.8125 24.5653 20.8125 25.0312H22.3125C22.3125 23.7368 21.2632 22.6875 19.9688 22.6875V24.1875ZM19.125 25.0312C19.125 24.5653 19.5028 24.1875 19.9688 24.1875V22.6875C18.6743 22.6875 17.625 23.7368 17.625 25.0312H19.125ZM19.125 29.8438V25.0312H17.625V29.8438H19.125Z" fill="black"/>
</svg>
