<svg width="30" height="24" viewBox="0 0 30 24" fill="none" xmlns="http://www.w3.org/2000/svg">
<path d="M25.1674 3.1824L9.38236 3.0004C7.04236 2.9724 5.12336 4.8474 5.09636 7.1874L4.99836 15.6954C4.97036 18.0334 6.84636 19.9544 9.18536 19.9784L19.7444 20.1004L25.4674 23.0294C25.8304 23.2164 26.2674 23.1764 26.5954 22.9354C26.9234 22.6914 27.0844 22.2604 27.0124 21.8614L26.7034 20.1374C28.0864 20.1374 29.2194 19.0684 29.2344 17.6854L29.3534 7.4664C29.3824 5.1274 27.5074 3.2084 25.1674 3.1824ZM23.2244 15.1934H11.0934C10.4244 15.1934 9.88036 14.6654 9.88036 13.9954C9.88036 13.3244 10.4234 12.7964 11.0934 12.7964H23.2234C23.8954 12.7964 24.4384 13.3244 24.4384 13.9954C24.4384 14.6644 23.8954 15.1934 23.2244 15.1934ZM23.2244 10.3994H11.0934C10.4244 10.3994 9.88036 9.8724 9.88036 9.2004C9.88036 8.5294 10.4234 8.0014 11.0934 8.0014H23.2234C23.8954 8.0014 24.4384 8.5294 24.4384 9.2004C24.4384 9.8714 23.8954 10.3994 23.2244 10.3994Z" fill="black"/>
<rect x="8.99805" y="6.1834" width="17" height="11" fill="black"/>
<path d="M4.33934 1.78832L4.33902 1.78833C2.41334 1.80972 0.870777 3.38888 0.894634 5.31307L0.89464 5.31364L1.01364 15.5326L1.01365 15.5332C1.02397 16.485 1.80222 17.2434 2.79469 17.2434H3.70116L3.53143 18.1338L3.23724 19.6771C3.20807 19.8351 3.13034 20.0748 3.06512 20.2759L3.05881 20.2953C3.05178 20.317 3.04468 20.3389 3.03752 20.3609C2.98697 20.5167 2.93345 20.6815 2.88261 20.8474C2.95574 20.7969 3.02818 20.7462 3.09922 20.6965C3.11651 20.6844 3.13371 20.6724 3.15082 20.6605L3.1631 20.6519C3.31798 20.5436 3.50925 20.4099 3.65197 20.3356L9.403 17.2934L9.56348 17.2085L9.74503 17.2064L20.304 17.0844L20.305 17.0844C22.2288 17.0647 23.7728 15.4842 23.7497 13.5604L23.7497 13.56L23.6517 5.05203C23.6517 5.05202 23.6517 5.05202 23.6517 5.05201C23.6295 3.1262 22.0502 1.58328 20.1247 1.60632L20.1243 1.60632L4.33934 1.78832ZM18.4047 13.7994H6.27369C5.20071 13.7994 4.30969 12.9467 4.30969 11.8514C4.30969 10.7536 5.20111 9.90237 6.27469 9.90237H18.4047C19.4771 9.90237 20.3677 10.7544 20.3677 11.8514C20.3677 12.9481 19.4753 13.7994 18.4047 13.7994ZM18.4047 9.00537H6.27369C5.20071 9.00537 4.30969 8.15371 4.30969 7.05637C4.30969 5.95864 5.20111 5.10737 6.27469 5.10737H18.4047C19.4771 5.10737 20.3677 5.95943 20.3677 7.05637C20.3677 8.15512 19.4753 9.00537 18.4047 9.00537Z" fill="white" stroke="black" stroke-width="1.5"/>
<path d="M21.9961 4.00009L12.4961 3.50009H7.99609L2.99609 4.00009L2.49609 9.50009L2.99609 15.0001L12.4961 15.5001L21.4961 15.0001L21.9961 4.00009Z" fill="white"/>
</svg>
