<svg width="41" height="28" viewBox="0 0 41 28" fill="none" xmlns="http://www.w3.org/2000/svg">
<path d="M33 26H11C10.4477 26 10 26.4477 10 27C10 27.5523 10.4477 28 11 28H33C33.5523 28 34 27.5523 34 27C34 26.4477 33.5523 26 33 26Z" fill="black"/>
<path d="M40.6667 26H37.3333C37.1492 26 37 26.4477 37 27C37 27.5523 37.1492 28 37.3333 28H40.6667C40.8508 28 41 27.5523 41 27C41 26.4477 40.8508 26 40.6667 26Z" fill="black"/>
<g clip-path="url(#clip0)">
<path d="M26.6619 1.33933C25.8687 0.547396 24.7937 0.102592 23.6729 0.102592C22.552 0.102592 21.477 0.547396 20.6839 1.33933L1.70918 20.314C1.16581 20.8543 0.734973 21.497 0.441599 22.2049C0.148224 22.9128 -0.00186431 23.6719 1.74781e-05 24.4382V26.8333C1.74781e-05 27.1428 0.122934 27.4395 0.341726 27.6583C0.560519 27.8771 0.857265 28 1.16668 28H3.56185C4.32807 28.0022 5.08711 27.8523 5.79503 27.5591C6.50295 27.266 7.14568 26.8353 7.68602 26.292L26.6619 7.31617C27.4534 6.52306 27.898 5.44829 27.898 4.32775C27.898 3.20721 27.4534 2.13244 26.6619 1.33933V1.33933ZM6.03635 24.6423C5.37835 25.296 4.48931 25.664 3.56185 25.6667H2.33335V24.4382C2.33217 23.9784 2.4222 23.5229 2.59823 23.0982C2.77426 22.6734 3.03278 22.2878 3.35885 21.9637L17.759 7.5635L20.4423 10.2468L6.03635 24.6423ZM25.011 5.6665L22.0873 8.59133L19.404 5.91383L22.3289 2.989C22.505 2.81319 22.7141 2.67381 22.9442 2.57881C23.1742 2.48381 23.4208 2.43505 23.6697 2.43533C23.9186 2.4356 24.165 2.48489 24.3948 2.58039C24.6247 2.67589 24.8335 2.81573 25.0093 2.99192C25.1851 3.16811 25.3245 3.3772 25.4195 3.60726C25.5145 3.83731 25.5632 4.08383 25.5629 4.33273C25.5627 4.58163 25.5134 4.82804 25.4179 5.05789C25.3224 5.28774 25.1825 5.49653 25.0064 5.67233L25.011 5.6665Z" fill="black"/>
</g>
<defs>
<clipPath id="clip0">
<rect width="28" height="28" fill="white"/>
</clipPath>
</defs>
</svg>
