<svg width="42" height="42" viewBox="0 0 42 42" fill="none" xmlns="http://www.w3.org/2000/svg">
<path d="M41.5798 17.6091L34.6172 11.5168V8.6914C34.6172 8.01185 34.0663 7.46093 33.3867 7.46093H30.027C29.9841 7.41835 23.4819 0.954126 23.4364 0.914259C21.9034 -0.427034 19.6609 -0.180612 18.5065 0.96758L11.973 7.46093H8.61328C7.93373 7.46093 7.38281 8.01185 7.38281 8.6914V11.5168L0.420246 17.6091C0.153152 17.8427 0 18.1803 0 18.5351V38.3047C0 40.3391 1.65654 41.9961 3.69141 41.9961H38.3086C40.3448 41.9961 42 40.3374 42 38.3047V18.5351C42 18.1804 41.8468 17.8428 41.5798 17.6091ZM34.6172 14.7868L38.9009 18.5351L34.6172 22.2834V14.7868ZM20.2088 2.74528C20.6655 2.36629 21.3345 2.36629 21.7912 2.74528L26.536 7.46085H15.464L20.2088 2.74528ZM9.84375 9.92187H32.1562V24.4368L28.0707 28.0116L23.4307 23.949C22.0449 22.7365 19.9549 22.7365 18.5688 23.9492L13.9292 28.0116L9.84375 24.4367V9.92187ZM7.38281 14.7868V22.2834L3.09906 18.5351L7.38281 14.7868ZM2.46094 38.0532V21.2468L12.0614 29.6471L2.46094 38.0532ZM4.50417 39.5351L20.1897 25.801C20.6516 25.3968 21.3484 25.3967 21.81 25.8007L37.4958 39.5351H4.50417ZM39.5391 38.0532L29.9386 29.6471L39.5391 21.2468V38.0532Z" fill="black"/>
<g clip-path="url(#clip0)">
<path d="M20.75 18C21.2445 18 21.7278 17.8534 22.1389 17.5787C22.55 17.304 22.8705 16.9135 23.0597 16.4567C23.2489 15.9999 23.2984 15.4972 23.202 15.0123C23.1055 14.5273 22.8674 14.0819 22.5178 13.7322C22.1681 13.3826 21.7227 13.1445 21.2377 13.048C20.7528 12.9516 20.2501 13.0011 19.7933 13.1903C19.3365 13.3795 18.946 13.7 18.6713 14.1111C18.3966 14.5222 18.25 15.0055 18.25 15.5C18.2507 16.1628 18.5143 16.7983 18.983 17.267C19.4517 17.7357 20.0872 17.9993 20.75 18ZM20.75 13.8333C21.0796 13.8333 21.4019 13.9311 21.676 14.1142C21.95 14.2974 22.1637 14.5577 22.2898 14.8622C22.4159 15.1667 22.449 15.5019 22.3846 15.8252C22.3203 16.1485 22.1616 16.4454 21.9285 16.6785C21.6954 16.9116 21.3985 17.0703 21.0752 17.1346C20.7518 17.199 20.4167 17.1659 20.1122 17.0398C19.8077 16.9137 19.5474 16.7 19.3642 16.426C19.1811 16.1519 19.0833 15.8296 19.0833 15.5C19.0833 15.058 19.2589 14.6341 19.5715 14.3215C19.884 14.0089 20.308 13.8333 20.75 13.8333V13.8333Z" fill="black"/>
<path d="M20.75 18.8333C19.7558 18.8346 18.8027 19.23 18.0997 19.933C17.3967 20.636 17.0012 21.5892 17 22.5833C17 22.6939 17.0439 22.7998 17.122 22.878C17.2002 22.9561 17.3062 23 17.4167 23C17.5272 23 17.6332 22.9561 17.7113 22.878C17.7894 22.7998 17.8333 22.6939 17.8333 22.5833C17.8333 21.8098 18.1406 21.0679 18.6876 20.5209C19.2346 19.974 19.9765 19.6667 20.75 19.6667C21.5235 19.6667 22.2654 19.974 22.8124 20.5209C23.3594 21.0679 23.6667 21.8098 23.6667 22.5833C23.6667 22.6939 23.7106 22.7998 23.7887 22.878C23.8668 22.9561 23.9728 23 24.0833 23C24.1938 23 24.2998 22.9561 24.378 22.878C24.4561 22.7998 24.5 22.6939 24.5 22.5833C24.4988 21.5892 24.1033 20.636 23.4003 19.933C22.6973 19.23 21.7442 18.8346 20.75 18.8333V18.8333Z" fill="black"/>
</g>
<path fill-rule="evenodd" clip-rule="evenodd" d="M27.7663 17.4019H26.2352V15.8708C26.2352 15.7915 26.1709 15.7273 26.0916 15.7273C26.0123 15.7273 25.9481 15.7915 25.9481 15.8708V17.4019H24.417C24.3377 17.4019 24.2734 17.4662 24.2734 17.5455C24.2734 17.6247 24.3377 17.689 24.417 17.689H25.9481V19.2201C25.9481 19.2994 26.0123 19.3636 26.0916 19.3636C26.1709 19.3636 26.2352 19.2994 26.2352 19.2201V17.689H27.7663C27.8455 17.689 27.9098 17.6247 27.9098 17.5455C27.9098 17.4662 27.8455 17.4019 27.7663 17.4019V17.4019Z" fill="black" stroke="black" stroke-width="0.330579"/>
<defs>
<clipPath id="clip0">
<rect width="10" height="10" fill="white" transform="translate(17 13)"/>
</clipPath>
</defs>
</svg>
