<svg id="Layer_1" enable-background="new 0 0 512.123 512.123" height="512" viewBox="0 0 512.123 512.123" width="512" xmlns="http://www.w3.org/2000/svg"><path d="m256.047 512.035c-137.604 2.835-258.845-118.391-255.998-256.002-.626-219.828 262.766-337.638 426.392-191.035 8.241 7.355 8.959 19.998 1.604 28.239-7.354 8.241-19.996 8.959-28.238 1.604-136.634-123.873-361.069-23.403-359.758 161.197-1.312 184.584 223.154 285.079 359.757 161.192 8.239-7.354 20.885-6.638 28.238 1.604 7.355 8.24 6.638 20.884-1.604 28.238-46.936 41.892-107.45 64.963-170.393 64.963zm171.098-145.739 67.289-66.166c.033-.032.065-.064.098-.097 11.344-11.31 17.592-26.35 17.592-42.352-.001-16.001-6.248-31.041-17.592-42.35-.058-.058-.115-.115-.174-.171l-67.289-65.46c-7.919-7.704-20.58-7.528-28.282.389s-7.527 20.58.39 28.282l67.187 65.362c3.716 3.741 5.76 8.691 5.761 13.951 0 5.275-2.058 10.239-5.794 13.984l-67.231 66.107c-7.876 7.744-7.982 20.407-.238 28.283 3.915 3.981 9.087 5.978 14.262 5.978 5.061-.001 10.126-1.911 14.021-5.74zm5.977-110.261c0-11.046-8.954-20-20-20h-271.076c-26.508.983-26.487 39.026 0 40.001h271.076c11.046-.001 20-8.956 20-20.001z"/></svg>