<svg xmlns="http://www.w3.org/2000/svg" width="15.037" height="15.036" viewBox="0 0 15.037 15.036">
  <g id="Arrow_-_Down" data-name="Arrow - Down" transform="translate(4.43 17.678) rotate(-135)">
    <path id="Fill_1" data-name="Fill 1" d="M.273,4.335,0,1.253a1.265,1.265,0,0,1,2.53,0L2.257,4.335a.992.992,0,0,1-1.985,0" transform="translate(3.735 0)" fill="#484848" opacity="0.4"/>
    <path id="Fill_4" data-name="Fill 4" d="M4.058,8.158c-.049-.048-.254-.228-.425-.4A18.394,18.394,0,0,1,.28,2.852a4.023,4.023,0,0,1-.28-1,1.667,1.667,0,0,1,.183-.758A1.571,1.571,0,0,1,.936.421,8.158,8.158,0,0,1,1.823.2,19.7,19.7,0,0,1,4.994,0,22.742,22.742,0,0,1,8.068.18,6.883,6.883,0,0,1,9.174.469,1.512,1.512,0,0,1,10,1.8v.048a4.192,4.192,0,0,1-.34,1.119,18.37,18.37,0,0,1-3.305,4.8,4.744,4.744,0,0,1-.462.409,1.473,1.473,0,0,1-.887.289,1.547,1.547,0,0,1-.948-.313" transform="translate(0 6.529)" fill="#484848"/>
  </g>
</svg>
